<?xml version="1.0" standalone="no"?><!DOCTYPE svg PUBLIC "-//W3C//DTD SVG 1.1//EN" "http://www.w3.org/Graphics/SVG/1.1/DTD/svg11.dtd"><svg t="1591089919495" class="icon" viewBox="0 0 1024 1024" version="1.1" xmlns="http://www.w3.org/2000/svg" p-id="8728" width="400" height="400" xmlns:xlink="http://www.w3.org/1999/xlink"><defs><style type="text/css"></style></defs><path d="M959 888l-0.9-3-0.6-1.5c-0.4-1-0.9-1.9-1.4-2.8s-1-1.8-1.6-2.6c-0.3-0.4-0.6-0.8-0.9-1.3-0.6-0.8-1.3-1.6-2-2.4-0.7-0.8-1.4-1.5-2.2-2.2-0.4-0.3-0.8-0.7-1.2-1-0.8-0.7-1.6-1.3-2.5-1.8-0.9-0.6-1.7-1.1-2.6-1.6-4.5-2.5-9.7-3.9-15.2-3.9h-40V517.2c15-19.1 24-43.1 24-69.2h16c17.6 0 32-14.4 32-32L864 96c-0.2-0.5-0.3-1.1-0.5-1.6-0.7-2.1-1.4-4.2-2.2-6.3-0.4-1-0.8-2-1.3-3-0.4-1-0.9-1.9-1.4-2.9s-1-1.8-1.5-2.7c-0.8-1.3-1.6-2.6-2.5-3.8-1.5-2-3.1-3.8-4.9-5.3-0.7-0.6-1.5-1.2-2.2-1.7l-2.4-1.5c-3.7-2.1-8-3.2-13-3.2H192c-2.2 0-4.3 0.2-6.2 0.7-1 0.2-1.9 0.5-2.8 0.8-2.3 0.8-4.4 1.9-6.3 3.3-1.2 0.8-2.3 1.7-3.3 2.7-0.7 0.7-1.4 1.4-2 2.1-3.2 3.6-5.8 8.1-8 13.1-1.3 3-2.4 6.1-3.3 9.4L64 416c0 17.6 14.4 32 32 32h16c0 26.1 9 50.1 24 69.2V864H96c-5.5 0-10.7 1.4-15.2 3.9-0.9 0.5-1.8 1-2.6 1.6-0.9 0.6-1.7 1.2-2.5 1.8-0.4 0.3-0.8 0.7-1.2 1-0.8 0.7-1.5 1.4-2.2 2.2-0.7 0.8-1.3 1.6-2 2.4-0.3 0.4-0.6 0.8-0.9 1.3-0.6 0.9-1.1 1.7-1.6 2.6s-0.9 1.8-1.4 2.8l-0.6 1.5c-0.4 1-0.7 2-0.9 3s-0.5 2.1-0.6 3.1c-0.2 1.6-0.4 3.2-0.4 4.9v64h896v-64c0-1.7-0.1-3.3-0.4-4.9 0-1.1-0.2-2.2-0.5-3.2zM190.7 105.2v-0.1c1.4-4.9 2.8-7.6 3.7-9.1h635.2c0.9 1.4 2.3 4.2 3.7 9.1v0.2l7.1 23.8h-657l7.3-23.9zM97.4 416l76.5-255h676.2l76.5 255H97.4zM168 545c16.5 9.6 35.6 15 56 15 40.7 0 76.4-21.8 96-54.4 19.6 32.6 55.3 54.4 96 54.4s76.4-21.8 96-54.4c19.6 32.6 55.3 54.4 96 54.4s76.4-21.8 96-54.4c19.6 32.6 55.3 54.4 96 54.4 20.4 0 39.5-5.5 56-15v319H168V545z m-24-97h160c0 44.1-35.9 80-80 80s-80-35.9-80-80z m192 0h160c0 44.1-35.9 80-80 80s-80-35.9-80-80z m192 0h160c0 44.1-35.9 80-80 80s-80-35.9-80-80z m272 80c-44.1 0-80-35.9-80-80h160c0 44.1-35.9 80-80 80z m128 400H96v-31.9l0.1-0.1H928l0.1 0.1-0.1 31.9zM715 576H309c-35.3 0-64 28.7-64 64v256h534V640c0-35.3-28.7-64-64-64zM277 864V640c0-17.6 14.4-32 32-32h12v112.2h-16v32h16V864h-44z m76 0V608h319v256H353z m394 0h-43V752.2h16v-32h-16V608h11c17.6 0 32 14.4 32 32v224z" p-id="8729" fill="#bfbfbf"></path></svg>